<svg width="83" height="14" viewBox="0 0 83 14" fill="none" xmlns="http://www.w3.org/2000/svg">
<path d="M15.86 -9.53674e-07V5.48H4.46V-9.53674e-07H0.86V14H4.46V8.52H15.86V14H19.46V-9.53674e-07H15.86ZM37.8553 2.86V-9.53674e-07H23.0553V14H37.8553V11.14H26.6553V8.3H37.8553V5.7H26.6553V2.86H37.8553ZM57.5286 5.14C57.5286 2.02 55.3486 -9.53674e-07 52.1686 -9.53674e-07H41.1686V14H44.7686V10.26H50.5686L52.8286 14H57.0686L54.4886 9.84C56.3686 9.1 57.5286 7.42 57.5286 5.14ZM44.7686 3.02H51.1686C52.2486 3.02 53.9286 3.02 53.9286 5.14C53.9286 7.24 52.2486 7.24 51.1686 7.24H44.7686V3.02ZM75.5077 2.86V-9.53674e-07H60.7077V14H75.5077V11.14H64.3077V8.3H75.5077V5.7H64.3077V2.86H75.5077ZM79.0358 11.32V14H82.4558V11.32H79.0358Z" fill="black"/>
</svg>
